# xmcd
#
# Track frame offsets: 
#        150
#        15590
#        29660
#        45547
#        56377
#        71367
#        85479
#        99470
#        113690
#        128085
#        141455
#        153775
#
# Disc length: 2279 seconds
#
# Revision: 1
# Processed by: cddbd v1.5.2PL0 Copyright (c) Steve Scherf et al.
# Submitted via: ExactAudioCopyFreeDBPlugin 1.0
#
DISCID=9808e50c
DTITLE=Various Artist - Weihnachten Im Truck
DYEAR=1993
DGENRE=country
TTITLE0=Mike Herman and Booze Company - Weihnachten Im Truck
TTITLE1=Linda Feller - In Dieser Stillen Nacht
TTITLE2=Greyhounds - Moderne Weihnachtsmänner
TTITLE3=Hanna and Daana - Du Wunderschöner Tannenbaum
TTITLE4=Joe Hodkins Boss Band - Ich Sing Ein Weihnachtslied Für Alle K
TTITLE4=inder
TTITLE5=Frank Baum and Country Green - Schöner Fremder Lass Mich Nicht A
TTITLE5=llein
TTITLE6=Greyhounds - Das Weihnachtsfest
TTITLE7=Linda Feller - Weihnachten Im Süden
TTITLE8=Mike Tauer - Der Helle Stern
TTITLE9=Linda Feller - Weihnachten Im Büro
TTITLE10=Mike Herman and Booze Company - Früher Kam Der Weihnachtsmann
TTITLE11=Hanna and Daana - Draussen Fällt Leise Der Schnee
EXTD=
EXTT0=
EXTT1=
EXTT2=
EXTT3=
EXTT4=
EXTT5=
EXTT6=
EXTT7=
EXTT8=
EXTT9=
EXTT10=
EXTT11=
PLAYORDER=
